<?xml version="1.0" standalone="no"?>
<!DOCTYPE svg PUBLIC "-//W3C//DTD SVG 20010904//EN"
 "http://www.w3.org/TR/2001/REC-SVG-20010904/DTD/svg10.dtd">
<svg version="1.0" xmlns="http://www.w3.org/2000/svg"
 width="512.000000pt" height="512.000000pt" viewBox="0 0 512.000000 512.000000"
 preserveAspectRatio="xMidYMid meet">
<metadata>
Created by potrace 1.11, written by Peter Selinger 2001-2013
</metadata>
<g transform="translate(0.000000,512.000000) scale(0.100000,-0.100000)"
fill="#000000" stroke="none">
<path d="M1350 5113 c-81 -31 -132 -134 -109 -218 18 -65 89 -125 147 -125 32
0 138 -108 205 -208 89 -133 156 -310 170 -450 4 -41 3 -44 -39 -72 -23 -17
-45 -30 -48 -30 -24 0 -402 -266 -508 -357 -439 -378 -560 -868 -386 -1568
154 -621 499 -1199 891 -1492 l89 -67 -214 -106 c-117 -58 -226 -114 -241
-125 -73 -47 -98 -215 -41 -273 17 -16 94 -17 1281 -20 1398 -3 1313 -6 1331
61 20 72 -6 188 -50 224 -7 6 -115 63 -240 126 l-228 114 88 65 c528 396 963
1321 965 2053 0 238 -35 400 -129 590 -91 187 -213 328 -427 494 -103 80 -315
224 -445 302 -68 42 -68 37 -36 188 50 235 239 515 375 554 31 10 66 28 81 44
86 90 62 235 -46 284 -39 18 -91 19 -1231 18 -655 0 -1197 -3 -1205 -6z"/>
</g>
</svg>
